<svg xmlns="http://www.w3.org/2000/svg" viewBox="0 0 32 32"><path fill="#e43071" d="M19.769.013a1.31 1.31 0 0 0-1.001.281c-.293.23-.476.563-.516.935a1.376 1.376 0 0 0 1.211 1.519c5.187.579 9.218 4.619 9.801 9.822a1.371 1.371 0 1 0 2.727-.307C31.264 5.771 26.24.733 19.769.012zm.1 5.571c-.762-.141-1.461.345-1.606 1.089s.343 1.469 1.084 1.615a5.54 5.54 0 0 1 4.39 4.4v.002a1.375 1.375 0 0 0 1.609 1.089 1.385 1.385 0 0 0 1.084-1.618 8.278 8.278 0 0 0-6.56-6.576zM22.4 20.945c.722-.416 1.538-.887 2.567-.668.932.197 4.109 2.776 4.98 3.67.57.585.888 1.189.937 1.794.086 2.371-3.136 5.078-3.722 5.416-.779.561-1.686.844-2.704.844-1.04 0-2.201-.296-3.466-.886C14.127 28.25 3.641 17.97.868 11.159-.282 8.623-.29 6.532.849 4.96c.454-.737 3.043-3.818 5.362-3.721.617.053 1.216.369 1.804.945.889.871 3.404 4.058 3.598 4.993.215 1.039-.257 1.866-.676 2.592-.089.156-.21.341-.342.544-.501.77-1.167 1.795-.931 2.449 1.691 4.151 5.596 7.772 9.749 9.473.642.233 1.666-.438 2.434-.941.2-.131.382-.251.536-.34l.017-.01z"/></svg>