<svg xmlns="http://www.w3.org/2000/svg" viewBox="0 0 32 32">
  <path d="M30.629 16.518a14.62 14.62 0 0 1-1.152 5.685 14.318 14.318 0 0 1-1.349 2.481 14.77 14.77 0 0 1-1.784 2.162 15.027 15.027 0 0 1-2.164 1.783 14.8 14.8 0 0 1-2.485 1.346 14.689 14.689 0 0 1-11.39 0 14.81 14.81 0 0 1-2.486-1.346 14.911 14.911 0 0 1-2.163-1.783 14.593 14.593 0 0 1-3.989-7.388 14.764 14.764 0 0 1 0-5.881 14.557 14.557 0 0 1 3.989-7.389 14.72 14.72 0 0 1 4.649-3.131 14.484 14.484 0 0 1 2.749-.85 14.729 14.729 0 0 1 8.641.85 14.64 14.64 0 0 1 2.485 1.35 14.96 14.96 0 0 1 2.164 1.781 14.706 14.706 0 0 1 3.133 4.644 14.608 14.608 0 0 1 1.152 5.686zM10.669 5.234a12.494 12.494 0 0 0-6.895 8.712c.329.003 5.535.068 11.533-1.523a74.992 74.992 0 0 0-4.639-7.189zm5.674 9.11C9.911 16.267 3.738 16.129 3.517 16.12c-.004.134-.01.264-.01.398 0 3.205 1.211 6.126 3.201 8.336-.004-.006 3.415-6.063 10.156-8.24.163-.054.329-.103.493-.15a42.674 42.674 0 0 0-1.014-2.12zm7.907-7.189A12.438 12.438 0 0 0 16 4.044c-1.015 0-2 .123-2.944.349.187.251 2.534 3.36 4.67 7.277 4.714-1.765 6.493-4.47 6.524-4.515zm-6.042 11.376c-.028.009-.056.017-.083.027-7.371 2.566-9.778 7.737-9.804 7.793a12.478 12.478 0 0 0 7.678 2.641c1.73 0 3.378-.352 4.877-.989-.185-1.09-.911-4.91-2.669-9.473zm4.772 8.333a12.479 12.479 0 0 0 5.353-8.368c-.257-.083-3.752-1.188-7.785-.542 1.639 4.497 2.304 8.159 2.432 8.911zm-4.293-13.335a38.827 38.827 0 0 1 1.1 2.455c4.292-.539 8.52.368 8.7.405a12.403 12.403 0 0 0-2.841-7.796c-.024.033-2.027 2.924-6.96 4.936z"/>
</svg>