<svg xmlns="http://www.w3.org/2000/svg" viewBox="0 0 31 32">

  <path d="M23.552 15.65a8.171 8.171 0 0 1-.645 3.184 8.265 8.265 0 0 1-2.967 3.599 8.208 8.208 0 0 1-6.231 1.23 8.236 8.236 0 0 1-1.539-.476 8.28 8.28 0 0 1-1.392-.754 8.283 8.283 0 0 1-2.211-2.21 8.15 8.15 0 0 1-1.233-6.22 8.149 8.149 0 0 1 2.233-4.138 8.22 8.22 0 0 1 2.603-1.753 8.09 8.09 0 0 1 1.539-.476 8.268 8.268 0 0 1 4.839.476 8.22 8.22 0 0 1 3.603 2.964 8.076 8.076 0 0 1 1.234 2.927c.111.538.167 1.092.167 1.647zM12.375 9.331a6.996 6.996 0 0 0-3.861 4.879c.184.002 3.1.038 6.459-.853a42.074 42.074 0 0 0-2.598-4.026zm3.177 5.101c-3.602 1.077-7.059.999-7.183.995-.002.075-.006.148-.006.223 0 1.795.678 3.431 1.793 4.668-.002-.004 1.912-3.395 5.688-4.614.091-.03.184-.058.276-.084a22.541 22.541 0 0 0-.568-1.187zm4.428-4.025a6.965 6.965 0 0 0-4.62-1.742c-.568 0-1.12.069-1.649.196.105.141 1.419 1.881 2.615 4.075 2.64-.988 3.636-2.503 3.653-2.529zm-3.384 6.37-.046.015c-4.128 1.437-5.476 4.333-5.49 4.364a6.99 6.99 0 0 0 7.031.925c-.104-.61-.51-2.75-1.494-5.305zm2.673 4.667a6.99 6.99 0 0 0 2.998-4.686c-.144-.046-2.101-.665-4.359-.304.918 2.518 1.291 4.569 1.362 4.99zm-2.404-7.468a22.047 22.047 0 0 1 .616 1.375c2.403-.302 4.771.206 4.872.227a6.943 6.943 0 0 0-1.591-4.366c-.013.019-1.135 1.638-3.897 2.764z"/>
</svg>