<svg xmlns="http://www.w3.org/2000/svg" viewBox="0 0 31 32">
  <path d="M15.361 7.469c-2.225 0-2.504.01-3.378.05-.872.04-1.467.178-1.988.381-.539.209-.996.489-1.451.945s-.736.912-.946 1.451c-.203.521-.341 1.117-.381 1.988-.039.874-.049 1.153-.049 3.378s.01 2.503.05 3.377c.04.872.178 1.467.381 1.988.209.539.489.996.945 1.451s.912.736 1.451.946c.521.203 1.117.341 1.989.381.874.04 1.153.05 3.378.05s2.503-.01 3.377-.05c.872-.04 1.468-.178 1.989-.381.539-.209.995-.49 1.45-.946s.736-.912.946-1.451c.201-.521.34-1.117.381-1.988.039-.874.05-1.152.05-3.377s-.01-2.504-.05-3.378c-.041-.872-.179-1.467-.381-1.988-.21-.539-.49-.996-.946-1.451s-.911-.736-1.451-.945c-.522-.203-1.118-.341-1.99-.381-.874-.04-1.152-.05-3.378-.05h.003zm-.735 1.477h.735c2.187 0 2.447.008 3.31.047.799.037 1.232.17 1.521.282.382.148.655.326.941.613s.464.56.613.942c.112.288.246.722.282 1.521.039.864.048 1.123.048 3.309s-.008 2.446-.048 3.309c-.036.799-.17 1.232-.282 1.521-.148.382-.326.654-.613.941s-.559.464-.941.613c-.288.113-.722.246-1.521.282-.864.039-1.123.048-3.31.048s-2.447-.009-3.31-.048c-.799-.037-1.232-.17-1.521-.282-.382-.148-.655-.326-.942-.613s-.464-.559-.613-.942c-.112-.288-.246-.722-.282-1.521-.039-.864-.047-1.123-.047-3.311s.008-2.446.047-3.309c.037-.799.17-1.232.282-1.521.148-.382.326-.655.613-.942s.56-.464.942-.613c.289-.113.722-.246 1.521-.282.756-.034 1.049-.044 2.575-.046v.002zm5.108 1.36a.983.983 0 1 0 0 1.966.983.983 0 0 0 0-1.966zm-4.373 1.148a4.208 4.208 0 1 0 .001 8.415 4.208 4.208 0 0 0-.001-8.415zm0 1.477a2.731 2.731 0 1 1 0 5.463 2.731 2.731 0 0 1 0-5.463z"/>
</svg>