<svg xmlns="http://www.w3.org/2000/svg" viewBox="0 0 32 32">
  <path d="M29.139 15.998h-.049c0-1.333.026-2.666-.008-3.998-.032-1.256-.079-2.516-.206-3.765-.122-1.195-.543-2.296-1.35-3.225-1.129-1.3-2.618-1.847-4.268-1.948-1.877-.115-3.76-.143-5.642-.166a175.297 175.297 0 0 0-5.617.022 46.378 46.378 0 0 0-3.765.206c-1.195.122-2.296.543-3.225 1.35-1.3 1.129-1.847 2.618-1.948 4.268-.115 1.877-.143 3.76-.166 5.642-.023 1.872-.015 3.745.022 5.617.025 1.256.079 2.516.206 3.765.122 1.195.543 2.296 1.35 3.225 1.129 1.3 2.618 1.847 4.268 1.948 1.877.115 3.76.143 5.642.166 1.872.023 3.745.023 5.617-.025 1.382-.036 2.778-.062 4.138-.276 2.326-.365 3.899-1.714 4.525-4.022.203-.748.309-1.538.338-2.314.08-2.155.096-4.313.137-6.47zM0 21.27V10.73c.018-.1.048-.199.051-.3.037-1.237.092-2.471.396-3.679C1.131 4.026 2.711 2.044 5.31.92 6.719.311 8.216.134 9.734.072c.333-.014.665-.048.997-.072h10.54c.1.018.199.048.3.051 1.237.037 2.471.092 3.679.396 2.725.684 4.707 2.264 5.831 4.863.609 1.409.786 2.907.848 4.424.014.333.048.665.072.997v10.54c-.018.1-.048.199-.051.3-.037 1.237-.093 2.471-.396 3.679-.684 2.725-2.264 4.707-4.863 5.831-1.409.609-2.907.786-4.424.848-.333.014-.665.048-.997.072H10.73c-.1-.018-.199-.048-.3-.051-1.237-.037-2.471-.093-3.679-.396C4.026 30.87 2.044 29.29.92 26.691c-.609-1.409-.786-2.906-.848-4.424-.014-.333-.048-.665-.072-.997z"/>
  <path d="M15.996 21.323c2.912 0 5.324-2.383 5.327-5.263.003-2.967-2.361-5.38-5.271-5.383-2.977-.002-5.374 2.366-5.375 5.31s2.383 5.335 5.318 5.335zm8.227-5.316c-.002 4.55-3.688 8.222-8.245 8.216-4.532-.007-8.203-3.69-8.2-8.23a8.217 8.217 0 0 1 8.245-8.216c4.534.008 8.201 3.689 8.2 8.23zM24.523 5.534c1.075-.005 1.94.851 1.942 1.921s-.86 1.937-1.929 1.939a1.943 1.943 0 0 1-1.931-1.941 1.935 1.935 0 0 1 1.918-1.919z"/>
</svg>