<svg xmlns="http://www.w3.org/2000/svg" viewBox="0 0 32 32">
  <path d="M16.001 1.91c-3.973 0-4.472.017-6.032.088-1.557.071-2.62.318-3.55.68-.962.374-1.778.873-2.591 1.687S2.514 5.994 2.14 6.956c-.363.93-.61 1.994-.68 3.55-.07 1.56-.088 2.059-.088 6.032s.018 4.47.088 6.03c.072 1.557.318 2.62.68 3.551.374.962.874 1.778 1.687 2.591s1.629 1.315 2.59 1.688c.931.362 1.994.608 3.551.68 1.56.071 2.059.088 6.031.088s4.47-.017 6.031-.088c1.557-.071 2.622-.318 3.552-.68.962-.374 1.777-.875 2.59-1.688s1.314-1.629 1.688-2.591c.36-.93.606-1.994.68-3.551.07-1.56.088-2.058.088-6.031s-.018-4.472-.088-6.032c-.073-1.557-.32-2.62-.68-3.55-.375-.962-.875-1.778-1.688-2.591s-1.627-1.314-2.59-1.687c-.933-.362-1.996-.608-3.554-.68-1.56-.071-2.057-.088-6.031-.088h.005zm-1.312 2.636h1.312c3.906 0 4.369.014 5.911.084 1.426.065 2.2.304 2.716.504.683.265 1.169.582 1.681 1.094s.829 1 1.095 1.682c.2.515.439 1.289.504 2.715.07 1.542.085 2.005.085 5.909s-.015 4.367-.085 5.909c-.065 1.426-.304 2.2-.504 2.715-.265.683-.583 1.169-1.095 1.68s-.998.829-1.681 1.094c-.515.201-1.29.439-2.716.504-1.542.07-2.005.085-5.911.085s-4.369-.015-5.911-.085c-1.426-.066-2.2-.304-2.716-.504-.683-.265-1.17-.582-1.682-1.094s-.829-.998-1.095-1.681c-.2-.515-.439-1.289-.504-2.716-.07-1.542-.084-2.005-.084-5.912s.014-4.367.084-5.909c.065-1.426.304-2.2.504-2.716.265-.683.583-1.17 1.095-1.682s1-.829 1.682-1.095c.516-.201 1.29-.439 2.716-.504 1.349-.061 1.872-.079 4.599-.082v.004zm9.121 2.429a1.756 1.756 0 1 0 0 3.511 1.756 1.756 0 0 0 0-3.511zm-7.809 2.051a7.512 7.512 0 1 0 0 15.025 7.512 7.512 0 0 0 0-15.025zm0 2.636a4.876 4.876 0 1 1 0 9.752 4.876 4.876 0 0 1 0-9.752z"/>
</svg>