<svg xmlns="http://www.w3.org/2000/svg" viewBox="0 0 35 32">
  <path d="m16.409 8.695.073 1.208-1.221-.148c-4.444-.567-8.327-2.49-11.623-5.719L2.026 2.434l-.415 1.183c-.879 2.638-.317 5.423 1.514 7.297.977 1.035.757 1.183-.928.567-.586-.197-1.099-.345-1.148-.271-.171.173.415 2.416.879 3.303.635 1.233 1.929 2.441 3.345 3.155l1.196.567-1.416.025c-1.367 0-1.416.025-1.27.542.488 1.602 2.417 3.303 4.566 4.043l1.514.518-1.319.789A13.743 13.743 0 0 1 2 25.976c-1.099.025-2.002.123-2.002.197 0 .247 2.979 1.627 4.713 2.169 5.201 1.602 11.379.912 16.018-1.824 3.296-1.948 6.593-5.818 8.131-9.565.83-1.997 1.66-5.645 1.66-7.396 0-1.134.073-1.282 1.441-2.638.806-.789 1.563-1.652 1.709-1.898.244-.468.22-.468-1.026-.049-2.075.74-2.368.641-1.343-.468.757-.789 1.66-2.219 1.66-2.638 0-.074-.366.049-.781.271-.44.247-1.416.616-2.149.838l-1.319.419-1.196-.813c-.659-.444-1.587-.937-2.076-1.085-1.245-.345-3.15-.296-4.273.099-3.052 1.109-4.981 3.969-4.762 7.1z"/>
</svg>