<svg xmlns="http://www.w3.org/2000/svg" viewBox="0 0 31 32">

  <path d="m14.9 12.786.032.532-.537-.065c-1.955-.249-3.664-1.095-5.114-2.516l-.709-.705-.183.521c-.387 1.161-.14 2.386.666 3.211.43.456.333.521-.408.249-.258-.087-.483-.152-.505-.119-.075.076.183 1.063.387 1.453.279.542.849 1.074 1.472 1.388l.526.249-.623.011c-.602 0-.623.011-.559.239.215.705 1.064 1.453 2.009 1.779l.666.228-.58.347a6.052 6.052 0 0 1-2.879.803c-.483.011-.881.054-.881.087 0 .109 1.311.716 2.074.954 2.288.705 5.007.401 7.048-.803 1.45-.857 2.901-2.56 3.578-4.209.365-.879.731-2.484.731-3.254 0-.499.032-.564.634-1.161.355-.347.688-.727.752-.835.107-.206.097-.206-.451-.022-.913.325-1.042.282-.591-.206.333-.347.731-.976.731-1.161 0-.033-.161.022-.344.119-.193.108-.623.271-.946.369l-.58.184-.526-.358c-.29-.195-.698-.412-.913-.477-.548-.152-1.386-.13-1.88.043-1.343.488-2.192 1.746-2.095 3.124z"/>
</svg>