<svg xmlns="http://www.w3.org/2000/svg" viewBox="0 0 27 32">
  <path d="M21.536 12.153h-1.685v-.983c-.639.738-1.18 1.111-1.771 1.111-.518 0-.878-.246-1.058-.691-.109-.27-.187-.693-.187-1.313V3.128h1.685v7.328c.039.251.145.342.359.342.323 0 .614-.282.971-.789V3.128h1.685v9.026zM13.908 9.472c.089.894-.186 1.337-.71 1.337s-.798-.443-.709-1.337V5.897c-.089-.894.186-1.313.71-1.313s.799.419.71 1.313l-.001 3.575zm1.686-3.395c0-.965-.192-1.689-.532-2.145-.449-.617-1.153-.87-1.863-.87-.803 0-1.414.253-1.863.87-.345.456-.531 1.188-.531 2.153l-.002 3.209c0 .959.165 1.622.51 2.073.448.615 1.175.941 1.885.941s1.449-.326 1.898-.941c.34-.452.497-1.114.497-2.073V6.077zM8.941 7.238v4.915H7.167V7.238S5.329 1.212 4.95.089h1.863l1.245 4.707L9.297.089h1.863L8.943 7.238zM15.966 20.845c-.264 0-.567.141-.836.408l-.002 5.42c.268.27.573.408.838.408.463 0 .672-.342.672-1.236v-3.843c0-.894-.209-1.156-.672-1.156zM22.581 21.919c0-.826-.212-1.074-.744-1.074-.536 0-.764.228-.764 1.063v.988l1.508-.002v-.976z"/>
  <path d="M21.852 27.08c.395 0 .626-.217.717-.649.015-.088.012-.474.012-1.123h1.685v.253c0 .521-.043.89-.057 1.052-.054.359-.18.683-.376.97-.444.648-1.103.968-1.942.968s-1.479-.305-1.944-.915c-.341-.447-.56-1.111-.56-2.06v-3.128c0-.954.199-1.692.54-2.144.464-.611 1.104-.934 1.924-.934.806 0 1.445.323 1.895.934.336.452.522 1.15.522 2.104v1.827h-3.196v1.605c-.006.825.227 1.24.779 1.24zm-3.528-1.326c0 .826-.07 1.409-.177 1.787-.214.664-.682 1.009-1.321 1.009-.571 0-1.156-.346-1.693-1.015l-.002.9h-1.597V16.46h1.597l-.002 3.904c.519-.643 1.106-1.009 1.697-1.009.639 0 1.069.372 1.284 1.041.107.359.215.938.215 1.783v3.575zm-6.12 2.681h-1.685v-.983c-.639.738-1.181 1.11-1.771 1.11-.518 0-.878-.246-1.058-.691-.109-.27-.187-.693-.187-1.313v-7.06h1.685v7.239c.039.251.145.342.359.342.322 0 .614-.282.971-.789v-6.792h1.685v8.936zm-6.387 0H4.043V18.158H2.18v-1.696l5.588-.002v1.698H5.817v10.277zm20.405-11.089s-.259-1.831-1.053-2.637c-1.007-1.058-2.136-1.063-2.654-1.125-3.706-.269-9.266-.269-9.266-.269h-.012s-5.56 0-9.266.269c-.518.062-1.646.067-2.654 1.125-.794.806-1.053 2.637-1.053 2.637s-.265 2.15-.265 4.299v2.015c0 2.15.265 4.299.265 4.299s.258 1.831 1.053 2.637c1.007 1.058 2.331 1.025 2.92 1.135 2.119.204 9.005.267 9.005.267s5.565-.008 9.272-.277c.518-.062 1.647-.067 2.654-1.125.794-.806 1.053-2.637 1.053-2.637s.265-2.15.265-4.299v-2.015c0-2.15-.265-4.299-.265-4.299z"/>
</svg>